<svg xmlns="http://www.w3.org/2000/svg" viewBox="0 0 53.54 53.54"><g data-name="&lt;Group&gt;"><path data-name="&lt;Path&gt;" fill="#c80000" d="M0 0h53.54v53.54H0z"/><g data-name="&lt;Group&gt;" fill="#fff"><path data-name="&lt;Path&gt;" d="M10.85 26.77a4.08 4.08 0 0 1 4.08-4.08H18v-2.32h-3.09a6.4 6.4 0 1 0 0 12.8h6a.65.65 0 0 0 .61-.61V20.71a1.39 1.39 0 0 1 1-1.37 1.53 1.53 0 0 1 1.74.83L28 26.64l3.63 6.26a.65.65 0 0 0 .7.41.47.47 0 0 0 .34-.48V20.71a1.39 1.39 0 0 1 1-1.37 1.53 1.53 0 0 1 1.73.83l3.48 6 3.9 6.73a.65.65 0 0 0 .7.41.47.47 0 0 0 .34-.48v-15.7h-2.27v9.34l-4.05-7c-2.5-4.15-7.12-2.47-7.12 1.17v5.83l-4.05-7c-2.46-4.18-7.11-2.45-7.11 1.15v9.58a.64.64 0 0 1-.64.65h-3.65a4.08 4.08 0 0 1-4.08-4.08z"/><path data-name="&lt;Path&gt;" d="M44.79 17.13v15.7a1.38 1.38 0 0 1-1.38 1.42 1.59 1.59 0 0 1-1.41-.88l-3.91-6.74-3.48-6a.65.65 0 0 0-.61-.4.47.47 0 0 0-.33.48v12.12a1.39 1.39 0 0 1-1 1.37 1.53 1.53 0 0 1-1.74-.83l-3.69-6.27-3.75-6.46a.65.65 0 0 0-.7-.41.47.47 0 0 0-.34.48v11.85a1.57 1.57 0 0 1-1.53 1.53h-6a7.32 7.32 0 1 1 0-14.65H18v-2.31h-3.09a9.64 9.64 0 1 0 0 19.28H21a3.5 3.5 0 0 0 3.79-3.85v-5.5l4.05 7c2.46 4.18 7.11 2.45 7.11-1.15v-5.85L40 34c2.46 4.18 7.11 2.45 7.11-1.15V17.13h-2.32z"/></g></g></svg>